<?xml version="1.0"?>
<svg xmlns="http://www.w3.org/2000/svg" viewBox="0 0 24 24" enable-background="new 0 0 24 24">
    <path d="M 12 2 C 7.130303 2 3 5.4846154 3 10 C 3 11.996549 3.8523027 13.870602 4 14.1875 L 4 15 C 4 16.645455 5.3545455 18 7 18 C 7.5545455 18 8 18.445455 8 19 C 8 20.645455 9.3545455 22 11 22 L 13 22 C 14.645455 22 16 20.645455 16 19 C 16 18.445455 16.445455 18 17 18 C 18.645455 18 20 16.645455 20 15 L 20 14.1875 C 20.147697 13.870602 21 11.996549 21 10 C 21 5.4846154 16.869697 2 12 2 z M 12 4 C 15.930303 4 19 6.7153846 19 10 C 19 11.42963 18.09375 13.59375 18.09375 13.59375 L 18 13.78125 L 18 14 L 18 15 C 18 15.554545 17.554545 16 17 16 C 15.354545 16 14 17.354545 14 19 C 14 19.554545 13.554545 20 13 20 L 11 20 C 10.445455 20 10 19.554545 10 19 C 10 17.354545 8.6454545 16 7 16 C 6.4454545 16 6 15.554545 6 15 L 6 14 L 6 13.78125 L 5.90625 13.59375 C 5.90625 13.59375 5 11.42963 5 10 C 5 6.7153846 8.069697 4 12 4 z M 9 11 C 7.8954305 11 7 11.895431 7 13 C 7 14.104569 7.8954305 15 9 15 C 10.104569 15 11 14.104569 11 13 C 11 11.895431 10.104569 11 9 11 z M 15 11 C 13.895431 11 13 11.895431 13 13 C 13 14.104569 13.895431 15 15 15 C 16.104569 15 17 14.104569 17 13 C 17 11.895431 16.104569 11 15 11 z M 12 15.1875 C 11.5 15.2875 10.6875 16.6125 10.6875 17.3125 C 10.6875 17.6125 10.9875 17.8125 11.1875 17.8125 C 11.5875 17.8125 11.9 17.39375 12 17.09375 C 12.1 17.39375 12.3125 17.8125 12.8125 17.8125 C 13.1125 17.8125 13.3125 17.6125 13.3125 17.3125 C 13.3125 16.6125 12.5 15.2875 12 15.1875 z"/>
</svg>
