<?xml version="1.0" encoding="iso-8859-1"?>
<!-- Generator: Adobe Illustrator 19.0.0, SVG Export Plug-In . SVG Version: 6.00 Build 0)  -->
<svg version="1.1" id="Layer_1" xmlns="http://www.w3.org/2000/svg" xmlns:xlink="http://www.w3.org/1999/xlink" x="0px" y="0px"
	 viewBox="0 0 512 512" style="enable-background:new 0 0 512 512;" xml:space="preserve">
<polygon style="fill:#535353;" points="310.857,480.653 310.857,512 201.143,512 201.143,480.653 240.327,480.653 240.327,203.755 
	271.673,203.755 271.673,480.653 "/>
<polygon style="fill:#2B292C;" points="310.857,480.653 310.857,512 256,512 256,203.755 271.673,203.755 271.673,480.653 "/>
<path style="fill:#EDEEF0;" d="M319.342,0H192.658l-63.342,109.714l63.342,109.714h126.683l63.342-109.714L319.342,0z
	 M301.244,188.082h-90.488l-45.244-78.367l45.244-78.367h90.488l45.244,78.367L301.244,188.082z"/>
<polygon style="fill:#C8C6CD;" points="382.683,109.714 319.342,219.429 256,219.429 256,188.082 301.244,188.082 346.488,109.714 
	301.244,31.347 256,31.347 256,0 319.342,0 "/>
<polygon style="fill:#E70020;" points="364.586,109.714 310.293,203.755 201.707,203.755 147.414,109.714 201.707,15.673 
	310.293,15.673 "/>
<polygon style="fill:#990013;" points="364.586,109.714 310.293,203.755 256,203.755 256,15.673 310.293,15.673 "/>
<g>
	<path style="fill:#FFFFFF;" d="M210.045,113.758c-0.679-1.515-1.63-2.8-2.853-3.866c-1.233-1.055-2.738-1.944-4.514-2.654
		c-1.766-0.711-3.751-1.369-5.956-1.975c-1.599-0.428-3.009-0.825-4.221-1.17c-1.202-0.345-2.215-0.721-3.009-1.128
		c-0.805-0.418-1.4-0.878-1.818-1.4c-0.408-0.512-0.616-1.16-0.616-1.944c0-2.55,1.902-3.824,5.705-3.824
		c1.39,0,2.769,0.199,4.148,0.585c1.39,0.387,2.664,0.846,3.824,1.358c1.17,0.522,2.142,1.014,2.926,1.494
		c0.773,0.47,1.223,0.794,1.358,0.972l4.66-8.819c-1.034-0.606-2.163-1.202-3.396-1.808s-2.56-1.149-3.992-1.63
		c-1.421-0.47-2.915-0.857-4.472-1.16c-1.557-0.303-3.135-0.46-4.733-0.46c-2.288,0-4.462,0.324-6.51,0.972
		c-2.058,0.648-3.856,1.62-5.413,2.884c-1.557,1.285-2.79,2.842-3.699,4.702s-1.358,4.002-1.358,6.416
		c0,1.735,0.251,3.25,0.742,4.545c0.502,1.296,1.254,2.435,2.267,3.427c1.024,1.003,2.309,1.87,3.866,2.633
		c1.546,0.752,3.385,1.452,5.507,2.1c1.599,0.481,3.072,0.909,4.441,1.296c1.358,0.397,2.539,0.815,3.532,1.264
		c0.993,0.46,1.766,0.961,2.33,1.526s0.846,1.275,0.846,2.142c0,2.288-1.881,3.438-5.642,3.438c-1.776,0-3.521-0.24-5.245-0.721
		c-1.735-0.47-3.302-1.014-4.702-1.62c-1.411-0.606-2.581-1.202-3.532-1.808c-0.951-0.606-1.515-1.014-1.693-1.233l-4.66,9.268
		c1.337,0.909,2.8,1.703,4.378,2.393c1.578,0.7,3.208,1.296,4.89,1.787c1.682,0.502,3.417,0.878,5.183,1.139
		c1.776,0.251,3.5,0.387,5.193,0.387c2.194,0,4.336-0.251,6.416-0.752c2.069-0.491,3.908-1.296,5.507-2.393
		c1.599-1.097,2.884-2.55,3.856-4.347c0.972-1.787,1.463-3.981,1.463-6.572C211.048,117.081,210.714,115.263,210.045,113.758z"/>
	<path style="fill:#FFFFFF;" d="M213.316,86.727v9.331h14.064v36.686h10.637V96.057h13.991v-9.331H213.316z"/>
	<path style="fill:#FFFFFF;" d="M296.542,101.303c-1.076-2.8-2.612-5.308-4.598-7.513c-1.985-2.205-4.389-3.981-7.199-5.319
		c-2.811-1.337-5.914-2.006-9.331-2.006c-3.333,0-6.395,0.637-9.206,1.912c-2.811,1.275-5.235,2.978-7.293,5.12
		c-1.108,1.149-2.079,2.403-2.915,3.751c-0.721,1.149-1.348,2.372-1.881,3.668c-1.149,2.811-1.714,5.726-1.714,8.756
		c0,2.978,0.543,5.872,1.651,8.683c0.533,1.379,1.181,2.685,1.944,3.908c0.773,1.275,1.672,2.466,2.685,3.584
		c1.996,2.173,4.389,3.939,7.199,5.277c2.811,1.337,5.925,2.006,9.331,2.006c3.333,0,6.395-0.648,9.206-1.943
		c2.811-1.296,5.235-3.009,7.262-5.151c2.027-2.142,3.615-4.608,4.765-7.419c1.149-2.811,1.714-5.726,1.714-8.756
		C298.162,106.966,297.629,104.114,296.542,101.303z M286.595,114.761c-0.491,1.661-1.243,3.156-2.236,4.472
		c-0.993,1.317-2.247,2.382-3.762,3.208c-1.515,0.815-3.281,1.233-5.308,1.233c-1.954,0-3.678-0.397-5.193-1.17
		c-1.515-0.773-2.779-1.818-3.793-3.114c-1.014-1.296-1.776-2.769-2.299-4.441c-0.512-1.661-0.773-3.375-0.773-5.151
		c0-1.724,0.24-3.427,0.742-5.089c0.502-1.661,1.254-3.145,2.267-4.441c1.014-1.296,2.267-2.341,3.762-3.145
		c1.494-0.794,3.25-1.191,5.287-1.191c1.944,0,3.657,0.376,5.151,1.128c1.484,0.752,2.748,1.776,3.793,3.051
		c1.034,1.275,1.808,2.738,2.33,4.399c0.522,1.672,0.784,3.385,0.784,5.162C287.347,111.397,287.096,113.089,286.595,114.761z"/>
	<path style="fill:#FFFFFF;" d="M337.868,96.643c-0.752-1.86-1.787-3.521-3.114-4.995c-1.317-1.463-2.894-2.654-4.723-3.563
		c-1.839-0.909-3.866-1.358-6.071-1.358h-19.634v46.017h10.627v-14.838h9.341c2.194,0,4.211-0.439,6.019-1.306
		c1.818-0.857,3.365-2.027,4.639-3.5c1.275-1.463,2.267-3.124,2.978-4.984c0.721-1.86,1.076-3.803,1.076-5.841
		C339.007,100.373,338.63,98.503,337.868,96.643z M326.886,107.008c-0.909,1.087-1.996,1.62-3.25,1.62h-8.683v-12.57h8.296
		c0.606,0,1.212,0.115,1.818,0.355s1.149,0.616,1.62,1.139c0.481,0.512,0.857,1.16,1.139,1.944c0.272,0.773,0.418,1.703,0.418,2.779
		C328.244,104.354,327.795,105.932,326.886,107.008z"/>
</g>
<g>
	<path style="fill:#C8C6CD;" d="M296.542,101.303c-1.076-2.8-2.612-5.308-4.598-7.513c-1.985-2.205-4.389-3.981-7.199-5.319
		c-2.811-1.337-5.914-2.006-9.331-2.006c-3.333,0-6.395,0.637-9.206,1.912c-2.811,1.275-5.235,2.978-7.293,5.12
		c-1.108,1.149-2.079,2.403-2.915,3.751v25.015c0.773,1.275,1.672,2.466,2.685,3.584c1.996,2.173,4.389,3.939,7.199,5.277
		c2.811,1.337,5.925,2.006,9.331,2.006c3.333,0,6.395-0.648,9.206-1.944c2.811-1.296,5.235-3.009,7.262-5.151
		c2.027-2.142,3.615-4.608,4.765-7.419c1.149-2.811,1.714-5.726,1.714-8.756C298.162,106.966,297.629,104.114,296.542,101.303z
		 M286.595,114.761c-0.491,1.661-1.243,3.156-2.236,4.472c-0.993,1.317-2.247,2.382-3.762,3.208
		c-1.515,0.815-3.281,1.233-5.308,1.233c-1.954,0-3.678-0.397-5.193-1.17c-1.515-0.773-2.779-1.818-3.793-3.114
		c-1.014-1.296-1.776-2.769-2.299-4.441c-0.512-1.661-0.773-3.375-0.773-5.151c0-1.724,0.24-3.427,0.742-5.089
		c0.502-1.661,1.254-3.145,2.267-4.441c1.014-1.296,2.267-2.341,3.762-3.145c1.494-0.794,3.25-1.191,5.287-1.191
		c1.944,0,3.657,0.376,5.151,1.128c1.484,0.752,2.748,1.776,3.793,3.051c1.034,1.275,1.808,2.738,2.33,4.399
		c0.522,1.672,0.784,3.385,0.784,5.162C287.347,111.397,287.096,113.089,286.595,114.761z"/>
	<path style="fill:#C8C6CD;" d="M337.868,96.643c-0.752-1.86-1.787-3.521-3.114-4.995c-1.317-1.463-2.894-2.654-4.723-3.563
		c-1.839-0.909-3.866-1.358-6.071-1.358h-19.634v46.017h10.627v-14.838h9.341c2.194,0,4.211-0.439,6.019-1.306
		c1.818-0.857,3.365-2.027,4.639-3.5c1.275-1.463,2.267-3.124,2.978-4.984c0.721-1.86,1.076-3.803,1.076-5.841
		C339.007,100.373,338.63,98.503,337.868,96.643z M326.886,107.008c-0.909,1.087-1.996,1.62-3.25,1.62h-8.683v-12.57h8.296
		c0.606,0,1.212,0.115,1.818,0.355s1.149,0.616,1.62,1.139c0.481,0.512,0.857,1.16,1.139,1.944c0.272,0.773,0.418,1.703,0.418,2.779
		C328.244,104.354,327.795,105.932,326.886,107.008z"/>
</g>
<g>
</g>
<g>
</g>
<g>
</g>
<g>
</g>
<g>
</g>
<g>
</g>
<g>
</g>
<g>
</g>
<g>
</g>
<g>
</g>
<g>
</g>
<g>
</g>
<g>
</g>
<g>
</g>
<g>
</g>
</svg>
