<?xml version="1.0" encoding="iso-8859-1"?>
<!-- Generator: Adobe Illustrator 19.0.0, SVG Export Plug-In . SVG Version: 6.00 Build 0)  -->
<svg version="1.1" id="Layer_1" xmlns="http://www.w3.org/2000/svg" xmlns:xlink="http://www.w3.org/1999/xlink" x="0px" y="0px"
	 viewBox="0 0 495 495" style="enable-background:new 0 0 495 495;" xml:space="preserve">
<g>
	<path style="fill:#B3D8F4;" d="M227.5,302.082V495h40V302.082c-6.546,0.866-13.221,1.32-20,1.32S234.046,302.948,227.5,302.082z"/>
	<path style="fill:#FF5023;" d="M247.5,171.701h-61.701v-40H247.5V0C163.852,0,95.799,68.053,95.799,151.701
		c0,76.869,57.472,140.561,131.701,150.381c6.546,0.866,13.221,1.32,20,1.32V171.701z"/>
	<path style="fill:#FF0C38;" d="M399.201,151.701C399.201,68.053,331.148,0,247.5,0v131.701h61.701v40H247.5v131.701
		c6.779,0,13.454-0.454,20-1.32C341.73,292.262,399.201,228.57,399.201,151.701z"/>
	<rect x="185.799" y="131.701" style="fill:#FFFFFF;" width="123.402" height="40"/>
</g>
<g>
</g>
<g>
</g>
<g>
</g>
<g>
</g>
<g>
</g>
<g>
</g>
<g>
</g>
<g>
</g>
<g>
</g>
<g>
</g>
<g>
</g>
<g>
</g>
<g>
</g>
<g>
</g>
<g>
</g>
</svg>
